{"asset":{"version":"2.0","generator":"babylon.js glTF exporter for 3ds max 2018 v1.2.19","copyright":"2017 (c) BabylonJS"},"extensionsUsed":["KHR_lights"],"scene":0,"scenes":[{"nodes":[0],"extensions":{"KHR_lights":{"light":0}}}],"nodes":[{"mesh":0,"translation":[0.0,0.0,0.0],"rotation":[0.0,0.0,0.0,1.0],"scale":[1.0,1.0,1.0],"name":"Box001"}],"meshes":[{"primitives":[{"attributes":{"POSITION":1,"NORMAL":2,"TEXCOORD_0":3},"indices":0,"mode":4,"material":0}],"name":"Box001"}],"accessors":[{"bufferView":0,"componentType":5123,"count":36,"type":"SCALAR","name":"accessorIndices"},{"bufferView":1,"componentType":5126,"count":36,"max":[0.1944381,0.393700778,0.192442551],"min":[-0.199262679,6.36908437E-09,-0.201258227],"type":"VEC3","name":"accessorPositions"},{"bufferView":1,"byteOffset":432,"componentType":5126,"count":36,"type":"VEC3","name":"accessorNormals"},{"bufferView":2,"componentType":5126,"count":36,"type":"VEC2","name":"accessorUVs"}],"bufferViews":[{"buffer":0,"byteLength":72,"name":"bufferViewScalar"},{"buffer":0,"byteOffset":72,"byteLength":864,"byteStride":12,"name":"bufferViewFloatVec3"},{"buffer":0,"byteOffset":936,"byteLength":288,"byteStride":8,"name":"bufferViewFloatVec2"}],"buffers":[{"uri":"cube.bin","byteLength":1224}],"materials":[{"pbrMetallicRoughness":{"baseColorFactor":[0.0,0.0,0.0,1.0],"metallicFactor":0.0,"roughnessFactor":1.0},"emissiveFactor":[0.0,0.0,0.0],"alphaMode":"OPAQUE","name":"Material #26"}],"extensions":{"KHR_lights":{"lights":[{"color":[1.0,1.0,1.0],"intensity":1.0,"type":"ambient"}]}}}